<svg width="20" height="20" viewBox="0 0 20 20" fill="none" xmlns="http://www.w3.org/2000/svg">
<path fill-rule="evenodd" clip-rule="evenodd" d="M13.5664 2.5C13.5664 2.15482 13.2866 1.875 12.9414 1.875C12.5962 1.875 12.3164 2.15482 12.3164 2.5V3.54167H6.89974V2.5C6.89974 2.15482 6.61992 1.875 6.27474 1.875C5.92956 1.875 5.64974 2.15482 5.64974 2.5V3.54167H4.60807C3.34242 3.54167 2.31641 4.56768 2.31641 5.83333V9.16667V15.8333C2.31641 17.099 3.34242 18.125 4.60807 18.125H14.6081C15.8737 18.125 16.8997 17.099 16.8997 15.8333V9.16667V5.83333C16.8997 4.56768 15.8737 3.54167 14.6081 3.54167H13.5664V2.5ZM15.6497 8.54167V5.83333C15.6497 5.25804 15.1834 4.79167 14.6081 4.79167H13.5664V5.83333C13.5664 6.17851 13.2866 6.45833 12.9414 6.45833C12.5962 6.45833 12.3164 6.17851 12.3164 5.83333V4.79167H6.89974V5.83333C6.89974 6.17851 6.61992 6.45833 6.27474 6.45833C5.92956 6.45833 5.64974 6.17851 5.64974 5.83333V4.79167H4.60807C4.03278 4.79167 3.56641 5.25804 3.56641 5.83333V8.54167H15.6497ZM3.56641 9.79167H15.6497V15.8333C15.6497 16.4086 15.1834 16.875 14.6081 16.875H4.60807C4.03278 16.875 3.56641 16.4086 3.56641 15.8333V9.79167Z" fill="#282828"/>
</svg>
