<svg width="25" height="25" viewBox="0 0 25 25" fill="none" xmlns="http://www.w3.org/2000/svg">
<path fill-rule="evenodd" clip-rule="evenodd" d="M11.6667 13.0944V24.0469C11.6667 24.4414 11.986 24.7617 12.3805 24.7617C12.775 24.7617 13.0944 24.4414 13.0944 24.0469V13.0944H24.0469C24.4414 13.0944 24.7617 12.775 24.7617 12.3805C24.7617 11.986 24.4414 11.6667 24.0469 11.6667H13.0944V0.713867C13.0944 0.319378 12.775 0 12.3805 0C11.986 0 11.6667 0.319378 11.6667 0.713867V11.6667H0.713867C0.319378 11.6667 0 11.986 0 12.3805C0 12.775 0.319378 13.0944 0.713867 13.0944H11.6667Z" fill="#9D9FA2"/>
</svg>
